<svg xmlns="http://www.w3.org/2000/svg" viewBox="0 0 427.94336 50.03027"><path d="M37.21875,270.38672l7.84033-49.34961h9.52l10.98975,38.57031H63.3291l23.23975-38.57031h9.52L88.249,270.38672H78.37891l5.31982-33.45947h2.87012l-20.79,33.45947H59.61865l-10.1499-33.45947h2.87012l-5.25,33.45947Z" transform="translate(-37.21875 -221.03711)" style="fill:#2cbcb2"/><path d="M112.00488,271.06738a13.281,13.281,0,0,1-7.98974-2.38086,12.65178,12.65178,0,0,1-4.65821-6.66308,21.87252,21.87252,0,0,1-.47607-9.9961q1.35938-8.36426,6.188-12.58007a16.89491,16.89491,0,0,1,11.49267-4.21582,12.68093,12.68093,0,0,1,7.10547,1.938,7.50817,7.50817,0,0,1,3.502,5.20166l-.61133.272,1.90429-6.66407h9.791q-.6123,2.17749-1.12109,4.42041-.5127,2.24341-.85157,4.4878l-4.01172,25.49951H122.06934l1.08789-6.79981h1.08789a12.41561,12.41561,0,0,1-4.69141,5.47364A13.69422,13.69422,0,0,1,112.00488,271.06738Zm3.53516-7.68457a8.19357,8.19357,0,0,0,5.98437-2.41406q2.44923-2.4126,3.26368-7.37793.88476-5.57447-.95118-8.12549a6.34424,6.34424,0,0,0-5.50781-2.55029,8.12176,8.12176,0,0,0-5.916,2.41406q-2.44923,2.41479-3.26368,7.37793-.88476,5.57665.95118,8.126A6.27164,6.27164,0,0,0,115.54,263.38281Z" transform="translate(-37.21875 -221.03711)" style="fill:#2cbcb2"/><path d="M140.58984,270.38672,148.3125,221.811h9.96582l-4.62012,29.04H153.79l14.25586-13.85986h12.27637l-18.5459,17.75391-.06641-3.69629,14.19043,19.33789H164.08594l-11.02149-14.51953h-.13281l-2.376,14.51953Z" transform="translate(-37.21875 -221.03711)" style="fill:#2cbcb2"/><path d="M195.77539,271.02734a19.40016,19.40016,0,0,1-9.82422-2.27246,12.38538,12.38538,0,0,1-5.53613-6.36816,18.11549,18.11549,0,0,1-.76856-9.47168,20.24822,20.24822,0,0,1,3.13672-8.2876,16.35123,16.35123,0,0,1,6.04785-5.4082,18.06565,18.06565,0,0,1,8.4795-1.91992,13.91565,13.91565,0,0,1,7.93652,2.11181,11.43335,11.43335,0,0,1,4.44824,5.728,16.32235,16.32235,0,0,1,.47949,8.41553l-.25585,2.17676H187.2627l.64062-4.86426H203.583l-1.15235,1.15136q.57569-4.15869-.832-6.20751-1.40771-2.04712-4.67187-2.04786a7.12785,7.12785,0,0,0-3.9043,1.05616,7.86763,7.86763,0,0,0-2.6875,2.91211,11.98393,11.98393,0,0,0-1.34375,4.22363l-.38476,2.43164q-.64014,4.5454,1.4082,6.97656,2.04785,2.43311,7.04,2.43164a15.62294,15.62294,0,0,0,4.57617-.67187,17.30631,17.30631,0,0,0,4.44824-2.14453l2.55957,6.40039a19.36881,19.36881,0,0,1-5.9834,2.75195A26.14764,26.14764,0,0,1,195.77539,271.02734Z" transform="translate(-37.21875 -221.03711)" style="fill:#2cbcb2"/><path d="M231.69043,270.38672l6.71973-42.29932h9.36035l-6.71973,42.29932Z" transform="translate(-37.21875 -221.03711)" style="fill:#d44e28"/><path d="M262.84766,270.9668q-5.915,0-8.35157-2.958-2.436-2.95752-1.624-8.52539l1.91406-12.00635h-5.56836l1.10254-6.438h5.56739l1.10253-7.25,9.10547-2.146-1.45019,9.396h7.48242l-.98633,6.438H263.544l-1.79786,11.6001q-.40722,2.72607.6377,3.79883a3.85714,3.85714,0,0,0,2.90039,1.07324,7.45076,7.45076,0,0,0,1.71094-.17383q.72363-.17432,1.59472-.46484l-1.10156,6.84472a11.53995,11.53995,0,0,1-2.37793.6377A15.23561,15.23561,0,0,1,262.84766,270.9668Z" transform="translate(-37.21875 -221.03711)" style="fill:#d44e28"/><path d="M302.39941,270.92676a31.81708,31.81708,0,0,1-8.15332-.999,22.28241,22.28241,0,0,1-6.31836-2.61914l2.80762-6.58789a26.50754,26.50754,0,0,0,5.61621,2.32227,23.69059,23.69059,0,0,0,6.69629.918q3.94043,0,5.751-1.16114a4.23217,4.23217,0,0,0,2.0791-2.99707,3.17613,3.17613,0,0,0-.64844-2.72656,5.72025,5.72025,0,0,0-3.50976-1.43164l-5.94043-.97168a11.92415,11.92415,0,0,1-7.42481-3.80664,9.07348,9.07348,0,0,1-1.75488-7.5332,12.30087,12.30087,0,0,1,2.835-6.15576,14.49062,14.49062,0,0,1,5.88574-3.9961,23.27545,23.27545,0,0,1,8.39746-1.40381,26.34593,26.34593,0,0,1,7.04688.918,13.54148,13.54148,0,0,1,5.31933,2.646l-2.8623,6.37207a15.73927,15.73927,0,0,0-4.48242-2.16016,19.71543,19.71543,0,0,0-5.88574-.81006,11.44731,11.44731,0,0,0-5.61622,1.16114,4.28989,4.28989,0,0,0-2.32128,3.3208,3.2825,3.2825,0,0,0,.62109,2.835,5.781,5.781,0,0,0,3.64453,1.59326l5.88574.97168q5.12988.81006,7.4795,3.64453,2.34813,2.83594,1.64648,7.42578A11.39842,11.39842,0,0,1,316.52051,265.5a14.47133,14.47133,0,0,1-5.751,3.99609A22.40382,22.40382,0,0,1,302.39941,270.92676Z" transform="translate(-37.21875 -221.03711)" style="fill:#242021"/><path d="M323.09277,270.38672l6.084-38.27149h7.85254L334.377,249.01514h-.832a10.31538,10.31538,0,0,1,4.13379-4.13379,11.87428,11.87428,0,0,1,5.69434-1.37793q4.78418,0,6.73437,2.80762,1.94972,2.80811,1.06543,8.57958l-2.44433,15.4961H340.877l2.44434-15.4961q.41456-2.85936-.49414-4.08154a3.48856,3.48856,0,0,0-2.99024-1.22168,6.03447,6.03447,0,0,0-4.34179,1.61182,7.54738,7.54738,0,0,0-2.15821,4.31543l-2.3916,14.87207Z" transform="translate(-37.21875 -221.03711)" style="fill:#242021"/><path d="M367.57715,270.88672a14.05609,14.05609,0,0,1-7.17481-1.67481,9.09,9.09,0,0,1-4.05078-4.82519,15.00474,15.00474,0,0,1-.52441-7.5,15.38644,15.38644,0,0,1,2.6748-6.79932,12.85932,12.85932,0,0,1,5.09961-4.15039,16.41851,16.41851,0,0,1,6.875-1.3999,13.8994,13.8994,0,0,1,7.17578,1.67529,9.16359,9.16359,0,0,1,4,4.82471,14.68379,14.68379,0,0,1,.47461,7.5,15.39756,15.39756,0,0,1-2.6748,6.7998,12.94941,12.94941,0,0,1-5.04981,4.15039A16.08287,16.08287,0,0,1,367.57715,270.88672Zm.39941-5.64942a5.8273,5.8273,0,0,0,4.27539-1.77539,9.72212,9.72212,0,0,0,2.375-5.4248q.64893-4.1001-.6748-5.97559a4.54892,4.54892,0,0,0-3.97559-1.87451,5.72364,5.72364,0,0,0-4.27441,1.7749,9.94,9.94,0,0,0-2.3252,5.42481q-.65039,4.1001.625,5.97558A4.46812,4.46812,0,0,0,367.97656,265.2373Z" transform="translate(-37.21875 -221.03711)" style="fill:#242021"/><path d="M385.084,270.38672l2.832-17.85547q.24023-1.63183.43261-3.26416.19044-1.6311.23926-3.168h7.00781l-.33593,7.0083-1.19922.04785a13.41025,13.41025,0,0,1,2.23144-4.272,8.77721,8.77721,0,0,1,3.14453-2.49609,9.08486,9.08486,0,0,1,3.83985-.81592,11.34638,11.34638,0,0,1,1.2959.07178q.62255.07251,1.15234.168l-1.05664,6.43212a7.584,7.584,0,0,0-1.60742-.5039,10.59956,10.59956,0,0,0-1.752-.12012,6.94178,6.94178,0,0,0-3.19238.74414,6.38732,6.38732,0,0,0-2.44824,2.23145,9.58089,9.58089,0,0,0-1.36817,3.64843l-1.87207,12.14356Z" transform="translate(-37.21875 -221.03711)" style="fill:#242021"/><path d="M415.80957,270.84668q-4.69189,0-6.624-2.3457-1.93213-2.34669-1.28809-6.76172l1.51856-9.52246H405l.874-5.10547h4.416l.874-5.75,7.22168-1.70215-1.15039,7.45215h5.93457l-.78222,5.10547h-6.02637l-1.42578,9.20019q-.32227,2.16212.50586,3.0127a3.05823,3.05823,0,0,0,2.30078.85156,5.82757,5.82757,0,0,0,1.35644-.13867q.57423-.1377,1.26465-.36719l-.874,5.42773a9.07986,9.07986,0,0,1-1.88574.50586A12.11925,12.11925,0,0,1,415.80957,270.84668Z" transform="translate(-37.21875 -221.03711)" style="fill:#242021"/><path d="M434.86719,270.82715a13.33262,13.33262,0,0,1-6.75391-1.5625,8.516,8.516,0,0,1-3.80566-4.37793,12.4641,12.4641,0,0,1-.52832-6.51172,13.92088,13.92088,0,0,1,2.15625-5.69824,11.243,11.243,0,0,1,4.1582-3.71778,12.4235,12.4235,0,0,1,5.83008-1.31982,9.56462,9.56462,0,0,1,5.45605,1.45215,7.858,7.858,0,0,1,3.05762,3.938,11.22381,11.22381,0,0,1,.33008,5.78613l-.17578,1.49512H429.01562l.43946-3.34375h10.78027l-.792.792a6.06937,6.06937,0,0,0-.57227-4.26758,3.61662,3.61662,0,0,0-3.21191-1.4082,4.90579,4.90579,0,0,0-2.68359.72558,5.42,5.42,0,0,0-1.84766,2.002,8.23818,8.23818,0,0,0-.92481,2.90429l-.26367,1.67188a5.90224,5.90224,0,0,0,.96778,4.7959q1.4077,1.67284,4.83984,1.67187a10.72871,10.72871,0,0,0,3.14648-.46191,11.88136,11.88136,0,0,0,3.05762-1.47363l1.76074,4.40039a13.33072,13.33072,0,0,1-4.11425,1.8916A17.98377,17.98377,0,0,1,434.86719,270.82715Z" transform="translate(-37.21875 -221.03711)" style="fill:#242021"/><path d="M447.10156,270.38672l2.47852-15.624q.20948-1.42677.37793-2.85547.167-1.42749.21-2.772h6.13183l-.29394,6.13135-1.04981.042a11.73565,11.73565,0,0,1,1.95313-3.7373,7.67,7.67,0,0,1,2.751-2.18408,7.95048,7.95048,0,0,1,3.35937-.71387,9.89949,9.89949,0,0,1,1.13379.063q.54639.063,1.00879.147l-.92481,5.62744a6.65158,6.65158,0,0,0-1.40625-.44043,9.24241,9.24241,0,0,0-1.5332-.10547,6.08,6.08,0,0,0-2.793.65137,5.59468,5.59468,0,0,0-2.14258,1.95313,8.37793,8.37793,0,0,0-1.19628,3.1914l-1.63868,10.626Z" transform="translate(-37.21875 -221.03711)" style="fill:#242021"/></svg>